#N canvas 334 198 335 275 12;
#X obj 37 37 inlet~;
#X obj 139 38 inlet;
#X obj 37 62 *~ 2;
#X obj 37 157 outlet~;
#X obj 238 38 inlet;
#X obj 139 63 *;
#X obj 139 158 outlet;
#X connect 0 0 2 0;
#X connect 1 0 5 0;
#X connect 2 0 3 0;
#X connect 4 0 5 1;
#X connect 5 0 6 0;
