#N canvas 373 181 700 500 12;
#N canvas 337 122 312 321 gen~ 0;
#X obj 107 94 inlet control;
#X obj 82 128 *~ 0;
#X obj 82 178 clip~ -1 1;
#X obj 82 203 outlet~;
#X obj 82 153 *~ 20;
#X obj 82 64 osc~ 150;
#X connect 0 0 1 1;
#X connect 1 0 4 0;
#X connect 2 0 3 0;
#X connect 4 0 2 0;
#X connect 5 0 1 0;
#X restore 249 166 pd gen~;
#X obj 249 241 dac~;
#X obj 249 37 loadbang;
#X msg 249 62 1;
#X obj 249 112 f;
#X obj 283 112 + 1;
#X obj 249 137 % 2;
#X obj 249 191 *~ 0.3;
#X obj 249 87 metro 50;
#X connect 0 0 7 0;
#X connect 2 0 3 0;
#X connect 3 0 8 0;
#X connect 4 0 5 0;
#X connect 4 0 6 0;
#X connect 5 0 4 1;
#X connect 6 0 0 0;
#X connect 7 0 1 0;
#X connect 7 0 1 1;
#X connect 8 0 4 0;
